<svg xmlns="http://www.w3.org/2000/svg" viewBox="0 0 48 48">
  <defs>
    <linearGradient id="glow" x1="0%" y1="0%" x2="100%" y2="100%">
      <stop offset="0%" style="stop-color:#58a6ff;stop-opacity:1" />
      <stop offset="100%" style="stop-color:#1f6feb;stop-opacity:1" />
    </linearGradient>
  </defs>
  <path d="M24 2 L44 14 L44 34 L24 46 L4 34 L4 14 Z" fill="#0d1117" stroke="url(#glow)" stroke-width="1.5"/>
  <path d="M18.5 16.5 C18.5 14.5 20.5 13 24 13 C27.5 13 29.5 14.5 29.5 16.5 C29.5 19 27 20 24 21 C21 22 18.5 23 18.5 25.5 C18.5 28 20.5 29.5 24 29.5" fill="none" stroke="url(#glow)" stroke-width="2.5" stroke-linecap="round"/>
  <path d="M27 13 L27 26 C27 28.5 25.5 29.5 24 29.5" fill="none" stroke="#c9d1d9" stroke-width="2.5" stroke-linecap="round"/>
  <circle cx="27" cy="35" r="1.5" fill="#58a6ff"/>
</svg>
